<mxfile host="app.diagrams.net" modified="2021-09-05T17:08:56.640Z" agent="5.0 (Windows NT 10.0; Win64; x64) AppleWebKit/537.36 (KHTML, like Gecko) Chrome/92.0.4515.159 Safari/537.36" etag="t-Wuh4EiDYdspvIeVBjI" version="15.0.6" type="github">
  <diagram id="dffs2iPzqX-7XElBFu8z" name="Page-1">
    <mxGraphModel dx="2170" dy="1205" grid="1" gridSize="10" guides="1" tooltips="1" connect="1" arrows="1" fold="1" page="1" pageScale="1" pageWidth="850" pageHeight="1100" math="0" shadow="0">
      <root>
        <mxCell id="0" />
        <mxCell id="1" parent="0" />
        <mxCell id="9gD_KTxOKnr7OHT7p1pg-1" value="user" style="rounded=0;whiteSpace=wrap;html=1;" vertex="1" parent="1">
          <mxGeometry x="145" y="280" width="100" height="30" as="geometry" />
        </mxCell>
        <mxCell id="9gD_KTxOKnr7OHT7p1pg-3" value="&lt;u&gt;user_id&lt;/u&gt;" style="ellipse;whiteSpace=wrap;html=1;" vertex="1" parent="1">
          <mxGeometry x="35" y="230" width="90" height="30" as="geometry" />
        </mxCell>
        <mxCell id="9gD_KTxOKnr7OHT7p1pg-4" value="user_nane" style="ellipse;whiteSpace=wrap;html=1;" vertex="1" parent="1">
          <mxGeometry x="35" y="270" width="90" height="30" as="geometry" />
        </mxCell>
        <mxCell id="9gD_KTxOKnr7OHT7p1pg-5" value="email" style="ellipse;whiteSpace=wrap;html=1;" vertex="1" parent="1">
          <mxGeometry x="45" y="310" width="90" height="30" as="geometry" />
        </mxCell>
        <mxCell id="9gD_KTxOKnr7OHT7p1pg-7" value="password" style="ellipse;whiteSpace=wrap;html=1;" vertex="1" parent="1">
          <mxGeometry x="35" y="350" width="90" height="30" as="geometry" />
        </mxCell>
        <mxCell id="9gD_KTxOKnr7OHT7p1pg-8" value="empoyee" style="rounded=0;whiteSpace=wrap;html=1;" vertex="1" parent="1">
          <mxGeometry x="425" y="280" width="100" height="30" as="geometry" />
        </mxCell>
        <mxCell id="9gD_KTxOKnr7OHT7p1pg-9" value="&lt;u&gt;id_emp&lt;/u&gt;" style="ellipse;whiteSpace=wrap;html=1;" vertex="1" parent="1">
          <mxGeometry x="602.5" y="240" width="90" height="30" as="geometry" />
        </mxCell>
        <mxCell id="9gD_KTxOKnr7OHT7p1pg-12" value="role_id" style="ellipse;whiteSpace=wrap;html=1;" vertex="1" parent="1">
          <mxGeometry x="545" y="280" width="90" height="30" as="geometry" />
        </mxCell>
        <mxCell id="9gD_KTxOKnr7OHT7p1pg-14" value="&lt;u&gt;depart_id&lt;/u&gt;" style="ellipse;whiteSpace=wrap;html=1;" vertex="1" parent="1">
          <mxGeometry x="710" y="325" width="90" height="30" as="geometry" />
        </mxCell>
        <mxCell id="9gD_KTxOKnr7OHT7p1pg-15" value="depart" style="rounded=0;whiteSpace=wrap;html=1;" vertex="1" parent="1">
          <mxGeometry x="580" y="350" width="80" height="30" as="geometry" />
        </mxCell>
        <mxCell id="9gD_KTxOKnr7OHT7p1pg-16" value="depart_name" style="ellipse;whiteSpace=wrap;html=1;" vertex="1" parent="1">
          <mxGeometry x="660" y="290" width="90" height="30" as="geometry" />
        </mxCell>
        <mxCell id="9gD_KTxOKnr7OHT7p1pg-17" value="item" style="rounded=0;whiteSpace=wrap;html=1;" vertex="1" parent="1">
          <mxGeometry x="700" y="532.5" width="70" height="30" as="geometry" />
        </mxCell>
        <mxCell id="9gD_KTxOKnr7OHT7p1pg-21" value="&lt;u&gt;item_id&lt;/u&gt;" style="ellipse;whiteSpace=wrap;html=1;" vertex="1" parent="1">
          <mxGeometry x="710" y="610" width="90" height="30" as="geometry" />
        </mxCell>
        <mxCell id="9gD_KTxOKnr7OHT7p1pg-22" value="item_name" style="ellipse;whiteSpace=wrap;html=1;" vertex="1" parent="1">
          <mxGeometry x="602.5" y="500" width="90" height="30" as="geometry" />
        </mxCell>
        <mxCell id="9gD_KTxOKnr7OHT7p1pg-23" value="item_import" style="ellipse;whiteSpace=wrap;html=1;" vertex="1" parent="1">
          <mxGeometry x="550" y="532.5" width="90" height="30" as="geometry" />
        </mxCell>
        <mxCell id="9gD_KTxOKnr7OHT7p1pg-24" value="case_repair" style="rounded=0;whiteSpace=wrap;html=1;" vertex="1" parent="1">
          <mxGeometry x="140" y="450" width="100" height="40" as="geometry" />
        </mxCell>
        <mxCell id="9gD_KTxOKnr7OHT7p1pg-25" value="&lt;u&gt;case_id&lt;/u&gt;" style="ellipse;whiteSpace=wrap;html=1;" vertex="1" parent="1">
          <mxGeometry x="50" y="410" width="90" height="30" as="geometry" />
        </mxCell>
        <mxCell id="9gD_KTxOKnr7OHT7p1pg-26" value="case_start" style="ellipse;whiteSpace=wrap;html=1;" vertex="1" parent="1">
          <mxGeometry x="30" y="460" width="90" height="30" as="geometry" />
        </mxCell>
        <mxCell id="9gD_KTxOKnr7OHT7p1pg-28" value="case_detail" style="ellipse;whiteSpace=wrap;html=1;" vertex="1" parent="1">
          <mxGeometry x="65" y="550" width="90" height="30" as="geometry" />
        </mxCell>
        <mxCell id="9gD_KTxOKnr7OHT7p1pg-30" value="user_id" style="ellipse;whiteSpace=wrap;html=1;" vertex="1" parent="1">
          <mxGeometry x="250" y="420" width="90" height="30" as="geometry" />
        </mxCell>
        <mxCell id="9gD_KTxOKnr7OHT7p1pg-31" value="item_type" style="rounded=0;whiteSpace=wrap;html=1;" vertex="1" parent="1">
          <mxGeometry x="630" y="760" width="70" height="30" as="geometry" />
        </mxCell>
        <mxCell id="9gD_KTxOKnr7OHT7p1pg-32" value="&lt;u&gt;id_type&lt;/u&gt;" style="ellipse;whiteSpace=wrap;html=1;" vertex="1" parent="1">
          <mxGeometry x="700" y="730" width="90" height="30" as="geometry" />
        </mxCell>
        <mxCell id="9gD_KTxOKnr7OHT7p1pg-33" value="name_type" style="ellipse;whiteSpace=wrap;html=1;" vertex="1" parent="1">
          <mxGeometry x="710" y="790" width="90" height="30" as="geometry" />
        </mxCell>
        <mxCell id="9gD_KTxOKnr7OHT7p1pg-38" value="" style="endArrow=none;html=1;exitX=1;exitY=0.5;exitDx=0;exitDy=0;entryX=0.25;entryY=0;entryDx=0;entryDy=0;" edge="1" parent="1" source="9gD_KTxOKnr7OHT7p1pg-3" target="9gD_KTxOKnr7OHT7p1pg-1">
          <mxGeometry width="50" height="50" relative="1" as="geometry">
            <mxPoint x="385" y="240" as="sourcePoint" />
            <mxPoint x="435" y="190" as="targetPoint" />
          </mxGeometry>
        </mxCell>
        <mxCell id="9gD_KTxOKnr7OHT7p1pg-39" value="" style="endArrow=none;html=1;exitX=1;exitY=0.5;exitDx=0;exitDy=0;entryX=0;entryY=0.25;entryDx=0;entryDy=0;" edge="1" parent="1" source="9gD_KTxOKnr7OHT7p1pg-4" target="9gD_KTxOKnr7OHT7p1pg-1">
          <mxGeometry width="50" height="50" relative="1" as="geometry">
            <mxPoint x="185" y="270" as="sourcePoint" />
            <mxPoint x="235" y="220" as="targetPoint" />
          </mxGeometry>
        </mxCell>
        <mxCell id="9gD_KTxOKnr7OHT7p1pg-40" value="" style="endArrow=none;html=1;exitX=1;exitY=0.5;exitDx=0;exitDy=0;entryX=0.11;entryY=1.033;entryDx=0;entryDy=0;entryPerimeter=0;" edge="1" parent="1" source="9gD_KTxOKnr7OHT7p1pg-5" target="9gD_KTxOKnr7OHT7p1pg-1">
          <mxGeometry width="50" height="50" relative="1" as="geometry">
            <mxPoint x="215" y="270" as="sourcePoint" />
            <mxPoint x="265" y="220" as="targetPoint" />
          </mxGeometry>
        </mxCell>
        <mxCell id="9gD_KTxOKnr7OHT7p1pg-41" value="" style="endArrow=none;html=1;exitX=1;exitY=0.5;exitDx=0;exitDy=0;" edge="1" parent="1" source="9gD_KTxOKnr7OHT7p1pg-7" target="9gD_KTxOKnr7OHT7p1pg-1">
          <mxGeometry width="50" height="50" relative="1" as="geometry">
            <mxPoint x="205" y="390" as="sourcePoint" />
            <mxPoint x="255" y="340" as="targetPoint" />
          </mxGeometry>
        </mxCell>
        <mxCell id="9gD_KTxOKnr7OHT7p1pg-42" value="" style="endArrow=none;html=1;entryX=0;entryY=0.5;entryDx=0;entryDy=0;exitX=1;exitY=0;exitDx=0;exitDy=0;" edge="1" parent="1" source="9gD_KTxOKnr7OHT7p1pg-8" target="9gD_KTxOKnr7OHT7p1pg-9">
          <mxGeometry width="50" height="50" relative="1" as="geometry">
            <mxPoint x="465" y="280" as="sourcePoint" />
            <mxPoint x="515" y="230" as="targetPoint" />
          </mxGeometry>
        </mxCell>
        <mxCell id="9gD_KTxOKnr7OHT7p1pg-43" value="" style="endArrow=none;html=1;exitX=1;exitY=0.5;exitDx=0;exitDy=0;entryX=0;entryY=0.5;entryDx=0;entryDy=0;" edge="1" parent="1" source="9gD_KTxOKnr7OHT7p1pg-8" target="9gD_KTxOKnr7OHT7p1pg-12">
          <mxGeometry width="50" height="50" relative="1" as="geometry">
            <mxPoint x="485" y="380" as="sourcePoint" />
            <mxPoint x="535" y="330" as="targetPoint" />
          </mxGeometry>
        </mxCell>
        <mxCell id="9gD_KTxOKnr7OHT7p1pg-44" value="type_name" style="ellipse;whiteSpace=wrap;html=1;" vertex="1" parent="1">
          <mxGeometry x="95" y="190" width="90" height="30" as="geometry" />
        </mxCell>
        <mxCell id="9gD_KTxOKnr7OHT7p1pg-45" value="" style="endArrow=none;html=1;exitX=0.422;exitY=0.967;exitDx=0;exitDy=0;exitPerimeter=0;entryX=0.5;entryY=0;entryDx=0;entryDy=0;" edge="1" parent="1" source="9gD_KTxOKnr7OHT7p1pg-44" target="9gD_KTxOKnr7OHT7p1pg-1">
          <mxGeometry width="50" height="50" relative="1" as="geometry">
            <mxPoint x="205" y="240" as="sourcePoint" />
            <mxPoint x="255" y="190" as="targetPoint" />
          </mxGeometry>
        </mxCell>
        <mxCell id="9gD_KTxOKnr7OHT7p1pg-47" value="" style="endArrow=none;html=1;exitX=0.695;exitY=0.987;exitDx=0;exitDy=0;exitPerimeter=0;entryX=0.657;entryY=0.032;entryDx=0;entryDy=0;entryPerimeter=0;" edge="1" parent="1" source="9gD_KTxOKnr7OHT7p1pg-17" target="9gD_KTxOKnr7OHT7p1pg-21">
          <mxGeometry width="50" height="50" relative="1" as="geometry">
            <mxPoint x="780" y="520" as="sourcePoint" />
            <mxPoint x="830" y="470" as="targetPoint" />
            <Array as="points">
              <mxPoint x="755" y="570" />
            </Array>
          </mxGeometry>
        </mxCell>
        <mxCell id="9gD_KTxOKnr7OHT7p1pg-49" value="" style="endArrow=none;html=1;exitX=1;exitY=0.5;exitDx=0;exitDy=0;" edge="1" parent="1" source="9gD_KTxOKnr7OHT7p1pg-22" target="9gD_KTxOKnr7OHT7p1pg-17">
          <mxGeometry width="50" height="50" relative="1" as="geometry">
            <mxPoint x="790" y="530" as="sourcePoint" />
            <mxPoint x="840" y="480" as="targetPoint" />
          </mxGeometry>
        </mxCell>
        <mxCell id="9gD_KTxOKnr7OHT7p1pg-50" value="" style="endArrow=none;html=1;exitX=1;exitY=0.5;exitDx=0;exitDy=0;entryX=0;entryY=0.25;entryDx=0;entryDy=0;" edge="1" parent="1" source="9gD_KTxOKnr7OHT7p1pg-23" target="9gD_KTxOKnr7OHT7p1pg-17">
          <mxGeometry width="50" height="50" relative="1" as="geometry">
            <mxPoint x="750" y="610" as="sourcePoint" />
            <mxPoint x="800" y="560" as="targetPoint" />
          </mxGeometry>
        </mxCell>
        <mxCell id="9gD_KTxOKnr7OHT7p1pg-83" value="" style="endArrow=none;html=1;exitX=1;exitY=0.5;exitDx=0;exitDy=0;entryX=0.237;entryY=1.002;entryDx=0;entryDy=0;entryPerimeter=0;" edge="1" parent="1" source="9gD_KTxOKnr7OHT7p1pg-31" target="9gD_KTxOKnr7OHT7p1pg-32">
          <mxGeometry width="50" height="50" relative="1" as="geometry">
            <mxPoint x="800" y="810" as="sourcePoint" />
            <mxPoint x="850" y="760" as="targetPoint" />
          </mxGeometry>
        </mxCell>
        <mxCell id="9gD_KTxOKnr7OHT7p1pg-84" value="" style="endArrow=none;html=1;exitX=1;exitY=0.75;exitDx=0;exitDy=0;" edge="1" parent="1" source="9gD_KTxOKnr7OHT7p1pg-31" target="9gD_KTxOKnr7OHT7p1pg-33">
          <mxGeometry width="50" height="50" relative="1" as="geometry">
            <mxPoint x="670" y="850" as="sourcePoint" />
            <mxPoint x="713" y="795" as="targetPoint" />
          </mxGeometry>
        </mxCell>
        <mxCell id="9gD_KTxOKnr7OHT7p1pg-85" value="" style="endArrow=none;html=1;entryX=0;entryY=0.5;entryDx=0;entryDy=0;" edge="1" parent="1" source="9gD_KTxOKnr7OHT7p1pg-15" target="9gD_KTxOKnr7OHT7p1pg-16">
          <mxGeometry width="50" height="50" relative="1" as="geometry">
            <mxPoint x="655" y="420" as="sourcePoint" />
            <mxPoint x="705" y="370" as="targetPoint" />
          </mxGeometry>
        </mxCell>
        <mxCell id="9gD_KTxOKnr7OHT7p1pg-86" value="" style="endArrow=none;html=1;entryX=1;entryY=0.5;entryDx=0;entryDy=0;" edge="1" parent="1" source="9gD_KTxOKnr7OHT7p1pg-14" target="9gD_KTxOKnr7OHT7p1pg-15">
          <mxGeometry width="50" height="50" relative="1" as="geometry">
            <mxPoint x="624.2893218813452" y="475" as="sourcePoint" />
            <mxPoint x="665" y="340" as="targetPoint" />
          </mxGeometry>
        </mxCell>
        <mxCell id="9gD_KTxOKnr7OHT7p1pg-88" value="" style="endArrow=none;html=1;entryX=0;entryY=0.5;entryDx=0;entryDy=0;" edge="1" parent="1" source="9gD_KTxOKnr7OHT7p1pg-24" target="9gD_KTxOKnr7OHT7p1pg-30">
          <mxGeometry width="50" height="50" relative="1" as="geometry">
            <mxPoint x="220" y="470" as="sourcePoint" />
            <mxPoint x="270" y="420" as="targetPoint" />
          </mxGeometry>
        </mxCell>
        <mxCell id="9gD_KTxOKnr7OHT7p1pg-89" value="" style="endArrow=none;html=1;entryX=0.57;entryY=0.06;entryDx=0;entryDy=0;entryPerimeter=0;exitX=0.343;exitY=1.001;exitDx=0;exitDy=0;exitPerimeter=0;" edge="1" parent="1" source="9gD_KTxOKnr7OHT7p1pg-24" target="9gD_KTxOKnr7OHT7p1pg-28">
          <mxGeometry width="50" height="50" relative="1" as="geometry">
            <mxPoint x="150" y="450" as="sourcePoint" />
            <mxPoint x="190" y="410" as="targetPoint" />
          </mxGeometry>
        </mxCell>
        <mxCell id="9gD_KTxOKnr7OHT7p1pg-90" value="" style="endArrow=none;html=1;exitX=0;exitY=0.5;exitDx=0;exitDy=0;" edge="1" parent="1" source="9gD_KTxOKnr7OHT7p1pg-24" target="9gD_KTxOKnr7OHT7p1pg-25">
          <mxGeometry width="50" height="50" relative="1" as="geometry">
            <mxPoint x="120" y="470" as="sourcePoint" />
            <mxPoint x="170" y="420" as="targetPoint" />
          </mxGeometry>
        </mxCell>
        <mxCell id="9gD_KTxOKnr7OHT7p1pg-91" value="" style="endArrow=none;html=1;entryX=0;entryY=0.75;entryDx=0;entryDy=0;" edge="1" parent="1" source="9gD_KTxOKnr7OHT7p1pg-26" target="9gD_KTxOKnr7OHT7p1pg-24">
          <mxGeometry width="50" height="50" relative="1" as="geometry">
            <mxPoint x="120" y="525" as="sourcePoint" />
            <mxPoint x="190.71067811865476" y="475" as="targetPoint" />
          </mxGeometry>
        </mxCell>
        <mxCell id="9gD_KTxOKnr7OHT7p1pg-93" value="1" style="endArrow=none;html=1;exitX=0;exitY=0.5;exitDx=0;exitDy=0;" edge="1" parent="1" source="9gD_KTxOKnr7OHT7p1pg-94">
          <mxGeometry width="50" height="50" relative="1" as="geometry">
            <mxPoint x="365" y="370" as="sourcePoint" />
            <mxPoint x="465" y="310" as="targetPoint" />
          </mxGeometry>
        </mxCell>
        <mxCell id="9gD_KTxOKnr7OHT7p1pg-94" value="have" style="rhombus;whiteSpace=wrap;html=1;" vertex="1" parent="1">
          <mxGeometry x="465" y="345" width="85" height="40" as="geometry" />
        </mxCell>
        <mxCell id="9gD_KTxOKnr7OHT7p1pg-95" value="1" style="endArrow=none;html=1;entryX=1;entryY=0.5;entryDx=0;entryDy=0;" edge="1" parent="1" source="9gD_KTxOKnr7OHT7p1pg-15" target="9gD_KTxOKnr7OHT7p1pg-94">
          <mxGeometry width="50" height="50" relative="1" as="geometry">
            <mxPoint x="505" y="457" as="sourcePoint" />
            <mxPoint x="505" y="390" as="targetPoint" />
          </mxGeometry>
        </mxCell>
        <mxCell id="9gD_KTxOKnr7OHT7p1pg-96" value="pm" style="rounded=0;whiteSpace=wrap;html=1;" vertex="1" parent="1">
          <mxGeometry x="135" y="683.5" width="70" height="30" as="geometry" />
        </mxCell>
        <mxCell id="9gD_KTxOKnr7OHT7p1pg-99" value="pm_start" style="ellipse;whiteSpace=wrap;html=1;" vertex="1" parent="1">
          <mxGeometry x="20" y="720" width="90" height="30" as="geometry" />
        </mxCell>
        <mxCell id="9gD_KTxOKnr7OHT7p1pg-100" value="pm_success" style="ellipse;whiteSpace=wrap;html=1;" vertex="1" parent="1">
          <mxGeometry x="30" y="760" width="90" height="30" as="geometry" />
        </mxCell>
        <mxCell id="9gD_KTxOKnr7OHT7p1pg-101" value="emp_id" style="ellipse;whiteSpace=wrap;html=1;" vertex="1" parent="1">
          <mxGeometry x="145" y="813.5" width="90" height="30" as="geometry" />
        </mxCell>
        <mxCell id="9gD_KTxOKnr7OHT7p1pg-118" value="img" style="ellipse;whiteSpace=wrap;html=1;" vertex="1" parent="1">
          <mxGeometry x="537.5" y="570" width="90" height="30" as="geometry" />
        </mxCell>
        <mxCell id="9gD_KTxOKnr7OHT7p1pg-119" value="&lt;u&gt;pm_id&lt;/u&gt;" style="ellipse;whiteSpace=wrap;html=1;" vertex="1" parent="1">
          <mxGeometry x="245" y="720" width="90" height="30" as="geometry" />
        </mxCell>
        <mxCell id="9gD_KTxOKnr7OHT7p1pg-120" value="" style="endArrow=none;html=1;exitX=1;exitY=0;exitDx=0;exitDy=0;" edge="1" parent="1" source="9gD_KTxOKnr7OHT7p1pg-118" target="9gD_KTxOKnr7OHT7p1pg-17">
          <mxGeometry width="50" height="50" relative="1" as="geometry">
            <mxPoint x="610" y="640" as="sourcePoint" />
            <mxPoint x="660" y="590" as="targetPoint" />
          </mxGeometry>
        </mxCell>
        <mxCell id="9gD_KTxOKnr7OHT7p1pg-124" value="" style="endArrow=none;html=1;exitX=0.5;exitY=0;exitDx=0;exitDy=0;entryX=0.75;entryY=1;entryDx=0;entryDy=0;" edge="1" parent="1" source="9gD_KTxOKnr7OHT7p1pg-101" target="9gD_KTxOKnr7OHT7p1pg-96">
          <mxGeometry width="50" height="50" relative="1" as="geometry">
            <mxPoint x="165" y="753.5" as="sourcePoint" />
            <mxPoint x="215" y="703.5" as="targetPoint" />
          </mxGeometry>
        </mxCell>
        <mxCell id="9gD_KTxOKnr7OHT7p1pg-125" value="" style="endArrow=none;html=1;exitX=1;exitY=0.5;exitDx=0;exitDy=0;" edge="1" parent="1" source="9gD_KTxOKnr7OHT7p1pg-96" target="9gD_KTxOKnr7OHT7p1pg-119">
          <mxGeometry width="50" height="50" relative="1" as="geometry">
            <mxPoint x="225" y="733.5" as="sourcePoint" />
            <mxPoint x="275" y="683.5" as="targetPoint" />
          </mxGeometry>
        </mxCell>
        <mxCell id="9gD_KTxOKnr7OHT7p1pg-126" value="" style="endArrow=none;html=1;exitX=0.698;exitY=0.017;exitDx=0;exitDy=0;exitPerimeter=0;entryX=0.5;entryY=1;entryDx=0;entryDy=0;" edge="1" parent="1" source="9gD_KTxOKnr7OHT7p1pg-100" target="9gD_KTxOKnr7OHT7p1pg-96">
          <mxGeometry width="50" height="50" relative="1" as="geometry">
            <mxPoint x="145" y="753.5" as="sourcePoint" />
            <mxPoint x="195" y="703.5" as="targetPoint" />
          </mxGeometry>
        </mxCell>
        <mxCell id="9gD_KTxOKnr7OHT7p1pg-127" value="" style="endArrow=none;html=1;entryX=0.25;entryY=1;entryDx=0;entryDy=0;exitX=0.939;exitY=0.267;exitDx=0;exitDy=0;exitPerimeter=0;" edge="1" parent="1" source="9gD_KTxOKnr7OHT7p1pg-99" target="9gD_KTxOKnr7OHT7p1pg-96">
          <mxGeometry width="50" height="50" relative="1" as="geometry">
            <mxPoint x="125" y="753.5" as="sourcePoint" />
            <mxPoint x="175" y="703.5" as="targetPoint" />
          </mxGeometry>
        </mxCell>
        <mxCell id="9gD_KTxOKnr7OHT7p1pg-129" value="" style="endArrow=none;html=1;entryX=0.75;entryY=1;entryDx=0;entryDy=0;exitX=0;exitY=0;exitDx=0;exitDy=0;" edge="1" parent="1" source="9gD_KTxOKnr7OHT7p1pg-130" target="9gD_KTxOKnr7OHT7p1pg-24">
          <mxGeometry width="50" height="50" relative="1" as="geometry">
            <mxPoint x="268.0013513760323" y="476.4618503175459" as="sourcePoint" />
            <mxPoint x="270" y="500" as="targetPoint" />
          </mxGeometry>
        </mxCell>
        <mxCell id="9gD_KTxOKnr7OHT7p1pg-130" value="case_img" style="ellipse;whiteSpace=wrap;html=1;" vertex="1" parent="1">
          <mxGeometry x="240" y="530" width="90" height="30" as="geometry" />
        </mxCell>
        <mxCell id="9gD_KTxOKnr7OHT7p1pg-132" value="name" style="ellipse;whiteSpace=wrap;html=1;" vertex="1" parent="1">
          <mxGeometry x="595" y="200" width="90" height="30" as="geometry" />
        </mxCell>
        <mxCell id="9gD_KTxOKnr7OHT7p1pg-133" value="" style="endArrow=none;html=1;exitX=0.75;exitY=0;exitDx=0;exitDy=0;entryX=0;entryY=1;entryDx=0;entryDy=0;" edge="1" parent="1" source="9gD_KTxOKnr7OHT7p1pg-8" target="9gD_KTxOKnr7OHT7p1pg-132">
          <mxGeometry width="50" height="50" relative="1" as="geometry">
            <mxPoint x="415" y="290" as="sourcePoint" />
            <mxPoint x="465" y="240" as="targetPoint" />
          </mxGeometry>
        </mxCell>
        <mxCell id="9gD_KTxOKnr7OHT7p1pg-134" value="password" style="ellipse;whiteSpace=wrap;html=1;" vertex="1" parent="1">
          <mxGeometry x="485" y="170" width="90" height="30" as="geometry" />
        </mxCell>
        <mxCell id="9gD_KTxOKnr7OHT7p1pg-135" value="email" style="ellipse;whiteSpace=wrap;html=1;" vertex="1" parent="1">
          <mxGeometry x="575" y="150" width="90" height="30" as="geometry" />
        </mxCell>
        <mxCell id="9gD_KTxOKnr7OHT7p1pg-138" value="" style="endArrow=none;html=1;exitX=0.652;exitY=-0.096;exitDx=0;exitDy=0;entryX=0.5;entryY=1;entryDx=0;entryDy=0;exitPerimeter=0;" edge="1" parent="1" source="9gD_KTxOKnr7OHT7p1pg-8" target="9gD_KTxOKnr7OHT7p1pg-135">
          <mxGeometry width="50" height="50" relative="1" as="geometry">
            <mxPoint x="375" y="320" as="sourcePoint" />
            <mxPoint x="425" y="270" as="targetPoint" />
          </mxGeometry>
        </mxCell>
        <mxCell id="9gD_KTxOKnr7OHT7p1pg-139" value="" style="endArrow=none;html=1;entryX=0.593;entryY=1.022;entryDx=0;entryDy=0;entryPerimeter=0;exitX=0.5;exitY=0;exitDx=0;exitDy=0;" edge="1" parent="1" source="9gD_KTxOKnr7OHT7p1pg-8" target="9gD_KTxOKnr7OHT7p1pg-134">
          <mxGeometry width="50" height="50" relative="1" as="geometry">
            <mxPoint x="355" y="350" as="sourcePoint" />
            <mxPoint x="405" y="300" as="targetPoint" />
          </mxGeometry>
        </mxCell>
        <mxCell id="9gD_KTxOKnr7OHT7p1pg-140" value="do" style="rhombus;whiteSpace=wrap;html=1;rotation=0;" vertex="1" parent="1">
          <mxGeometry x="155" y="360" width="80" height="40" as="geometry" />
        </mxCell>
        <mxCell id="9gD_KTxOKnr7OHT7p1pg-141" value="" style="endArrow=none;html=1;exitX=0.5;exitY=0;exitDx=0;exitDy=0;entryX=0.5;entryY=1;entryDx=0;entryDy=0;" edge="1" parent="1" source="9gD_KTxOKnr7OHT7p1pg-140" target="9gD_KTxOKnr7OHT7p1pg-1">
          <mxGeometry width="50" height="50" relative="1" as="geometry">
            <mxPoint x="415" y="450" as="sourcePoint" />
            <mxPoint x="235" y="355" as="targetPoint" />
          </mxGeometry>
        </mxCell>
        <mxCell id="9gD_KTxOKnr7OHT7p1pg-244" value="1" style="edgeLabel;html=1;align=center;verticalAlign=middle;resizable=0;points=[];" vertex="1" connectable="0" parent="9gD_KTxOKnr7OHT7p1pg-141">
          <mxGeometry x="0.48" y="-1" relative="1" as="geometry">
            <mxPoint y="-1" as="offset" />
          </mxGeometry>
        </mxCell>
        <mxCell id="9gD_KTxOKnr7OHT7p1pg-142" value="" style="endArrow=none;html=1;entryX=0.5;entryY=1;entryDx=0;entryDy=0;exitX=0.556;exitY=0.014;exitDx=0;exitDy=0;exitPerimeter=0;" edge="1" parent="1" source="9gD_KTxOKnr7OHT7p1pg-24" target="9gD_KTxOKnr7OHT7p1pg-140">
          <mxGeometry width="50" height="50" relative="1" as="geometry">
            <mxPoint x="365" y="560" as="sourcePoint" />
            <mxPoint x="487" y="494" as="targetPoint" />
          </mxGeometry>
        </mxCell>
        <mxCell id="9gD_KTxOKnr7OHT7p1pg-246" value="m" style="edgeLabel;html=1;align=center;verticalAlign=middle;resizable=0;points=[];" vertex="1" connectable="0" parent="9gD_KTxOKnr7OHT7p1pg-142">
          <mxGeometry x="0.3419" y="-1" relative="1" as="geometry">
            <mxPoint as="offset" />
          </mxGeometry>
        </mxCell>
        <mxCell id="9gD_KTxOKnr7OHT7p1pg-168" value="" style="endArrow=none;html=1;exitX=0.505;exitY=0.037;exitDx=0;exitDy=0;exitPerimeter=0;" edge="1" parent="1" source="9gD_KTxOKnr7OHT7p1pg-17">
          <mxGeometry width="50" height="50" relative="1" as="geometry">
            <mxPoint x="735" y="530" as="sourcePoint" />
            <mxPoint x="735" y="470" as="targetPoint" />
          </mxGeometry>
        </mxCell>
        <mxCell id="9gD_KTxOKnr7OHT7p1pg-262" value="m" style="edgeLabel;html=1;align=center;verticalAlign=middle;resizable=0;points=[];" vertex="1" connectable="0" parent="9gD_KTxOKnr7OHT7p1pg-168">
          <mxGeometry x="0.7483" y="-1" relative="1" as="geometry">
            <mxPoint as="offset" />
          </mxGeometry>
        </mxCell>
        <mxCell id="9gD_KTxOKnr7OHT7p1pg-189" value="have" style="rhombus;whiteSpace=wrap;html=1;" vertex="1" parent="1">
          <mxGeometry x="615" y="450" width="50" height="30" as="geometry" />
        </mxCell>
        <mxCell id="9gD_KTxOKnr7OHT7p1pg-193" value="" style="endArrow=none;html=1;exitX=1;exitY=0.5;exitDx=0;exitDy=0;" edge="1" parent="1" source="9gD_KTxOKnr7OHT7p1pg-189">
          <mxGeometry width="50" height="50" relative="1" as="geometry">
            <mxPoint x="685" y="510" as="sourcePoint" />
            <mxPoint x="735" y="465" as="targetPoint" />
          </mxGeometry>
        </mxCell>
        <mxCell id="9gD_KTxOKnr7OHT7p1pg-194" value="" style="endArrow=none;html=1;" edge="1" parent="1">
          <mxGeometry width="50" height="50" relative="1" as="geometry">
            <mxPoint x="734.88" y="475" as="sourcePoint" />
            <mxPoint x="734.88" y="465" as="targetPoint" />
          </mxGeometry>
        </mxCell>
        <mxCell id="9gD_KTxOKnr7OHT7p1pg-195" value="" style="endArrow=none;html=1;exitX=1;exitY=0;exitDx=0;exitDy=0;" edge="1" parent="1" source="9gD_KTxOKnr7OHT7p1pg-196" target="9gD_KTxOKnr7OHT7p1pg-17">
          <mxGeometry width="50" height="50" relative="1" as="geometry">
            <mxPoint x="695" y="600" as="sourcePoint" />
            <mxPoint x="715" y="580" as="targetPoint" />
          </mxGeometry>
        </mxCell>
        <mxCell id="9gD_KTxOKnr7OHT7p1pg-196" value="detail" style="ellipse;whiteSpace=wrap;html=1;" vertex="1" parent="1">
          <mxGeometry x="590" y="610" width="60" height="20" as="geometry" />
        </mxCell>
        <mxCell id="9gD_KTxOKnr7OHT7p1pg-197" value="" style="endArrow=none;html=1;exitX=1;exitY=0.5;exitDx=0;exitDy=0;" edge="1" parent="1" source="9gD_KTxOKnr7OHT7p1pg-17">
          <mxGeometry width="50" height="50" relative="1" as="geometry">
            <mxPoint x="795" y="580" as="sourcePoint" />
            <mxPoint x="815" y="548" as="targetPoint" />
          </mxGeometry>
        </mxCell>
        <mxCell id="9gD_KTxOKnr7OHT7p1pg-198" value="" style="endArrow=none;html=1;" edge="1" parent="1">
          <mxGeometry width="50" height="50" relative="1" as="geometry">
            <mxPoint x="815" y="650" as="sourcePoint" />
            <mxPoint x="815" y="550" as="targetPoint" />
          </mxGeometry>
        </mxCell>
        <mxCell id="9gD_KTxOKnr7OHT7p1pg-206" value="" style="endArrow=none;html=1;" edge="1" parent="1">
          <mxGeometry width="50" height="50" relative="1" as="geometry">
            <mxPoint x="665" y="650" as="sourcePoint" />
            <mxPoint x="815" y="650" as="targetPoint" />
          </mxGeometry>
        </mxCell>
        <mxCell id="9gD_KTxOKnr7OHT7p1pg-261" value="m" style="edgeLabel;html=1;align=center;verticalAlign=middle;resizable=0;points=[];" vertex="1" connectable="0" parent="9gD_KTxOKnr7OHT7p1pg-206">
          <mxGeometry x="-0.2956" relative="1" as="geometry">
            <mxPoint y="1" as="offset" />
          </mxGeometry>
        </mxCell>
        <mxCell id="9gD_KTxOKnr7OHT7p1pg-207" value="" style="endArrow=none;html=1;" edge="1" parent="1">
          <mxGeometry width="50" height="50" relative="1" as="geometry">
            <mxPoint x="665" y="700" as="sourcePoint" />
            <mxPoint x="665" y="650" as="targetPoint" />
          </mxGeometry>
        </mxCell>
        <mxCell id="9gD_KTxOKnr7OHT7p1pg-208" value="have" style="rhombus;whiteSpace=wrap;html=1;" vertex="1" parent="1">
          <mxGeometry x="635" y="700" width="60" height="30" as="geometry" />
        </mxCell>
        <mxCell id="9gD_KTxOKnr7OHT7p1pg-209" value="1" style="endArrow=none;html=1;" edge="1" parent="1">
          <mxGeometry width="50" height="50" relative="1" as="geometry">
            <mxPoint x="664.66" y="760" as="sourcePoint" />
            <mxPoint x="664.66" y="730" as="targetPoint" />
          </mxGeometry>
        </mxCell>
        <mxCell id="9gD_KTxOKnr7OHT7p1pg-210" value="" style="endArrow=none;html=1;exitX=1;exitY=0.5;exitDx=0;exitDy=0;" edge="1" parent="1" source="9gD_KTxOKnr7OHT7p1pg-24">
          <mxGeometry width="50" height="50" relative="1" as="geometry">
            <mxPoint x="335" y="500" as="sourcePoint" />
            <mxPoint x="370" y="470" as="targetPoint" />
          </mxGeometry>
        </mxCell>
        <mxCell id="9gD_KTxOKnr7OHT7p1pg-211" value="1" style="endArrow=none;html=1;entryX=-0.003;entryY=0.406;entryDx=0;entryDy=0;entryPerimeter=0;" edge="1" parent="1" target="9gD_KTxOKnr7OHT7p1pg-8">
          <mxGeometry width="50" height="50" relative="1" as="geometry">
            <mxPoint x="370" y="292" as="sourcePoint" />
            <mxPoint x="415" y="280" as="targetPoint" />
          </mxGeometry>
        </mxCell>
        <mxCell id="9gD_KTxOKnr7OHT7p1pg-216" value="" style="endArrow=none;html=1;" edge="1" parent="1">
          <mxGeometry width="50" height="50" relative="1" as="geometry">
            <mxPoint x="170" y="683.5" as="sourcePoint" />
            <mxPoint x="170" y="643.5" as="targetPoint" />
          </mxGeometry>
        </mxCell>
        <mxCell id="9gD_KTxOKnr7OHT7p1pg-248" value="m" style="edgeLabel;html=1;align=center;verticalAlign=middle;resizable=0;points=[];" vertex="1" connectable="0" parent="9gD_KTxOKnr7OHT7p1pg-216">
          <mxGeometry x="-0.3457" y="1" relative="1" as="geometry">
            <mxPoint as="offset" />
          </mxGeometry>
        </mxCell>
        <mxCell id="9gD_KTxOKnr7OHT7p1pg-217" value="ทำการ" style="rhombus;whiteSpace=wrap;html=1;" vertex="1" parent="1">
          <mxGeometry x="140" y="616" width="62.5" height="30" as="geometry" />
        </mxCell>
        <mxCell id="9gD_KTxOKnr7OHT7p1pg-224" value="" style="endArrow=none;html=1;exitX=1;exitY=0.5;exitDx=0;exitDy=0;" edge="1" parent="1" source="9gD_KTxOKnr7OHT7p1pg-217">
          <mxGeometry width="50" height="50" relative="1" as="geometry">
            <mxPoint x="210" y="630" as="sourcePoint" />
            <mxPoint x="420" y="631" as="targetPoint" />
          </mxGeometry>
        </mxCell>
        <mxCell id="9gD_KTxOKnr7OHT7p1pg-225" value="" style="endArrow=none;html=1;entryX=0;entryY=1;entryDx=0;entryDy=0;" edge="1" parent="1" target="9gD_KTxOKnr7OHT7p1pg-8">
          <mxGeometry width="50" height="50" relative="1" as="geometry">
            <mxPoint x="420" y="630" as="sourcePoint" />
            <mxPoint x="430" y="313" as="targetPoint" />
          </mxGeometry>
        </mxCell>
        <mxCell id="9gD_KTxOKnr7OHT7p1pg-247" value="1" style="edgeLabel;html=1;align=center;verticalAlign=middle;resizable=0;points=[];" vertex="1" connectable="0" parent="9gD_KTxOKnr7OHT7p1pg-225">
          <mxGeometry x="0.713" y="-1" relative="1" as="geometry">
            <mxPoint as="offset" />
          </mxGeometry>
        </mxCell>
        <mxCell id="9gD_KTxOKnr7OHT7p1pg-226" value="" style="endArrow=none;html=1;startArrow=none;" edge="1" parent="1" source="9gD_KTxOKnr7OHT7p1pg-263">
          <mxGeometry width="50" height="50" relative="1" as="geometry">
            <mxPoint x="370" y="470" as="sourcePoint" />
            <mxPoint x="370" y="290" as="targetPoint" />
          </mxGeometry>
        </mxCell>
        <mxCell id="9gD_KTxOKnr7OHT7p1pg-235" value="" style="endArrow=none;html=1;exitX=1;exitY=0.25;exitDx=0;exitDy=0;" edge="1" parent="1" source="9gD_KTxOKnr7OHT7p1pg-96">
          <mxGeometry width="50" height="50" relative="1" as="geometry">
            <mxPoint x="440" y="740" as="sourcePoint" />
            <mxPoint x="490" y="690" as="targetPoint" />
          </mxGeometry>
        </mxCell>
        <mxCell id="9gD_KTxOKnr7OHT7p1pg-260" value="m" style="edgeLabel;html=1;align=center;verticalAlign=middle;resizable=0;points=[];" vertex="1" connectable="0" parent="9gD_KTxOKnr7OHT7p1pg-235">
          <mxGeometry x="0.3006" relative="1" as="geometry">
            <mxPoint as="offset" />
          </mxGeometry>
        </mxCell>
        <mxCell id="9gD_KTxOKnr7OHT7p1pg-236" value="have" style="rhombus;whiteSpace=wrap;html=1;" vertex="1" parent="1">
          <mxGeometry x="470" y="666" width="80" height="36.5" as="geometry" />
        </mxCell>
        <mxCell id="9gD_KTxOKnr7OHT7p1pg-237" value="" style="endArrow=none;html=1;exitX=0.5;exitY=0;exitDx=0;exitDy=0;" edge="1" parent="1" source="9gD_KTxOKnr7OHT7p1pg-236">
          <mxGeometry width="50" height="50" relative="1" as="geometry">
            <mxPoint x="460" y="670" as="sourcePoint" />
            <mxPoint x="510" y="490" as="targetPoint" />
          </mxGeometry>
        </mxCell>
        <mxCell id="9gD_KTxOKnr7OHT7p1pg-242" value="" style="endArrow=none;html=1;exitX=0.25;exitY=0;exitDx=0;exitDy=0;" edge="1" parent="1" source="9gD_KTxOKnr7OHT7p1pg-17">
          <mxGeometry width="50" height="50" relative="1" as="geometry">
            <mxPoint x="690" y="540" as="sourcePoint" />
            <mxPoint x="718" y="490" as="targetPoint" />
          </mxGeometry>
        </mxCell>
        <mxCell id="9gD_KTxOKnr7OHT7p1pg-243" value="" style="endArrow=none;html=1;" edge="1" parent="1">
          <mxGeometry width="50" height="50" relative="1" as="geometry">
            <mxPoint x="510" y="490" as="sourcePoint" />
            <mxPoint x="720" y="490" as="targetPoint" />
          </mxGeometry>
        </mxCell>
        <mxCell id="9gD_KTxOKnr7OHT7p1pg-259" value="1" style="edgeLabel;html=1;align=center;verticalAlign=middle;resizable=0;points=[];" vertex="1" connectable="0" parent="9gD_KTxOKnr7OHT7p1pg-243">
          <mxGeometry x="-0.4889" y="-2" relative="1" as="geometry">
            <mxPoint as="offset" />
          </mxGeometry>
        </mxCell>
        <mxCell id="9gD_KTxOKnr7OHT7p1pg-249" value="status" style="ellipse;whiteSpace=wrap;html=1;" vertex="1" parent="1">
          <mxGeometry x="30" y="800" width="90" height="30" as="geometry" />
        </mxCell>
        <mxCell id="9gD_KTxOKnr7OHT7p1pg-250" value="menu_pm" style="ellipse;whiteSpace=wrap;html=1;" vertex="1" parent="1">
          <mxGeometry x="55" y="843.5" width="90" height="30" as="geometry" />
        </mxCell>
        <mxCell id="9gD_KTxOKnr7OHT7p1pg-251" value="" style="endArrow=none;html=1;entryX=0.608;entryY=0.966;entryDx=0;entryDy=0;entryPerimeter=0;exitX=0.77;exitY=0.078;exitDx=0;exitDy=0;exitPerimeter=0;" edge="1" parent="1" source="9gD_KTxOKnr7OHT7p1pg-249" target="9gD_KTxOKnr7OHT7p1pg-96">
          <mxGeometry width="50" height="50" relative="1" as="geometry">
            <mxPoint x="130" y="790" as="sourcePoint" />
            <mxPoint x="180" y="740" as="targetPoint" />
          </mxGeometry>
        </mxCell>
        <mxCell id="9gD_KTxOKnr7OHT7p1pg-252" value="" style="endArrow=none;html=1;entryX=0.656;entryY=0.999;entryDx=0;entryDy=0;entryPerimeter=0;exitX=0.648;exitY=0.039;exitDx=0;exitDy=0;exitPerimeter=0;" edge="1" parent="1" source="9gD_KTxOKnr7OHT7p1pg-250" target="9gD_KTxOKnr7OHT7p1pg-96">
          <mxGeometry width="50" height="50" relative="1" as="geometry">
            <mxPoint x="140" y="800" as="sourcePoint" />
            <mxPoint x="180" y="710" as="targetPoint" />
          </mxGeometry>
        </mxCell>
        <mxCell id="9gD_KTxOKnr7OHT7p1pg-253" value="user_id" style="ellipse;whiteSpace=wrap;html=1;" vertex="1" parent="1">
          <mxGeometry x="260" y="770" width="90" height="30" as="geometry" />
        </mxCell>
        <mxCell id="9gD_KTxOKnr7OHT7p1pg-254" value="" style="endArrow=none;html=1;exitX=0;exitY=0;exitDx=0;exitDy=0;entryX=0.886;entryY=0.983;entryDx=0;entryDy=0;entryPerimeter=0;" edge="1" parent="1" source="9gD_KTxOKnr7OHT7p1pg-253" target="9gD_KTxOKnr7OHT7p1pg-96">
          <mxGeometry width="50" height="50" relative="1" as="geometry">
            <mxPoint x="200" y="823.5" as="sourcePoint" />
            <mxPoint x="197.5" y="723.5" as="targetPoint" />
          </mxGeometry>
        </mxCell>
        <mxCell id="9gD_KTxOKnr7OHT7p1pg-255" value="" style="endArrow=none;html=1;exitX=0.75;exitY=0;exitDx=0;exitDy=0;" edge="1" parent="1" source="9gD_KTxOKnr7OHT7p1pg-96">
          <mxGeometry width="50" height="50" relative="1" as="geometry">
            <mxPoint x="310" y="880" as="sourcePoint" />
            <mxPoint x="220" y="670" as="targetPoint" />
          </mxGeometry>
        </mxCell>
        <mxCell id="9gD_KTxOKnr7OHT7p1pg-256" value="id_item" style="ellipse;whiteSpace=wrap;html=1;" vertex="1" parent="1">
          <mxGeometry x="210" y="653.5" width="90" height="30" as="geometry" />
        </mxCell>
        <mxCell id="9gD_KTxOKnr7OHT7p1pg-257" value="detail" style="ellipse;whiteSpace=wrap;html=1;" vertex="1" parent="1">
          <mxGeometry x="250" y="830" width="90" height="30" as="geometry" />
        </mxCell>
        <mxCell id="9gD_KTxOKnr7OHT7p1pg-258" value="" style="endArrow=none;html=1;entryX=0.827;entryY=1.003;entryDx=0;entryDy=0;entryPerimeter=0;" edge="1" parent="1" source="9gD_KTxOKnr7OHT7p1pg-257" target="9gD_KTxOKnr7OHT7p1pg-96">
          <mxGeometry width="50" height="50" relative="1" as="geometry">
            <mxPoint x="210" y="830" as="sourcePoint" />
            <mxPoint x="260" y="780" as="targetPoint" />
          </mxGeometry>
        </mxCell>
        <mxCell id="9gD_KTxOKnr7OHT7p1pg-263" value="do" style="rhombus;whiteSpace=wrap;html=1;" vertex="1" parent="1">
          <mxGeometry x="330" y="350" width="85" height="40" as="geometry" />
        </mxCell>
        <mxCell id="9gD_KTxOKnr7OHT7p1pg-264" value="" style="endArrow=none;html=1;" edge="1" parent="1" target="9gD_KTxOKnr7OHT7p1pg-263">
          <mxGeometry width="50" height="50" relative="1" as="geometry">
            <mxPoint x="370" y="470" as="sourcePoint" />
            <mxPoint x="370" y="289.9999999999999" as="targetPoint" />
          </mxGeometry>
        </mxCell>
        <mxCell id="9gD_KTxOKnr7OHT7p1pg-276" value="1" style="edgeLabel;html=1;align=center;verticalAlign=middle;resizable=0;points=[];" vertex="1" connectable="0" parent="9gD_KTxOKnr7OHT7p1pg-264">
          <mxGeometry x="-0.2856" relative="1" as="geometry">
            <mxPoint as="offset" />
          </mxGeometry>
        </mxCell>
        <mxCell id="9gD_KTxOKnr7OHT7p1pg-265" value="status" style="ellipse;whiteSpace=wrap;html=1;" vertex="1" parent="1">
          <mxGeometry x="270" y="490" width="65" height="20" as="geometry" />
        </mxCell>
        <mxCell id="9gD_KTxOKnr7OHT7p1pg-266" value="" style="endArrow=none;html=1;exitX=1;exitY=1;exitDx=0;exitDy=0;entryX=0;entryY=0.5;entryDx=0;entryDy=0;" edge="1" parent="1" source="9gD_KTxOKnr7OHT7p1pg-24" target="9gD_KTxOKnr7OHT7p1pg-265">
          <mxGeometry width="50" height="50" relative="1" as="geometry">
            <mxPoint x="340" y="590" as="sourcePoint" />
            <mxPoint x="390" y="540" as="targetPoint" />
          </mxGeometry>
        </mxCell>
        <mxCell id="9gD_KTxOKnr7OHT7p1pg-270" value="" style="endArrow=none;html=1;entryX=0.75;entryY=1;entryDx=0;entryDy=0;exitX=0.5;exitY=0;exitDx=0;exitDy=0;" edge="1" parent="1" source="9gD_KTxOKnr7OHT7p1pg-189" target="9gD_KTxOKnr7OHT7p1pg-15">
          <mxGeometry width="50" height="50" relative="1" as="geometry">
            <mxPoint x="610" y="430" as="sourcePoint" />
            <mxPoint x="660" y="380" as="targetPoint" />
          </mxGeometry>
        </mxCell>
        <mxCell id="9gD_KTxOKnr7OHT7p1pg-271" value="1" style="edgeLabel;html=1;align=center;verticalAlign=middle;resizable=0;points=[];" vertex="1" connectable="0" parent="9gD_KTxOKnr7OHT7p1pg-270">
          <mxGeometry x="0.5338" y="2" relative="1" as="geometry">
            <mxPoint as="offset" />
          </mxGeometry>
        </mxCell>
        <mxCell id="9gD_KTxOKnr7OHT7p1pg-274" value="case_seccess" style="ellipse;whiteSpace=wrap;html=1;" vertex="1" parent="1">
          <mxGeometry x="30" y="502.5" width="90" height="30" as="geometry" />
        </mxCell>
        <mxCell id="9gD_KTxOKnr7OHT7p1pg-275" value="" style="endArrow=none;html=1;exitX=1;exitY=0.5;exitDx=0;exitDy=0;" edge="1" parent="1" source="9gD_KTxOKnr7OHT7p1pg-274">
          <mxGeometry width="50" height="50" relative="1" as="geometry">
            <mxPoint x="110" y="540" as="sourcePoint" />
            <mxPoint x="160" y="490" as="targetPoint" />
          </mxGeometry>
        </mxCell>
        <mxCell id="9gD_KTxOKnr7OHT7p1pg-277" value="place" style="ellipse;whiteSpace=wrap;html=1;" vertex="1" parent="1">
          <mxGeometry x="770" y="490" width="80" height="35" as="geometry" />
        </mxCell>
        <mxCell id="9gD_KTxOKnr7OHT7p1pg-278" value="" style="endArrow=none;html=1;exitX=0.75;exitY=0;exitDx=0;exitDy=0;" edge="1" parent="1" source="9gD_KTxOKnr7OHT7p1pg-17">
          <mxGeometry width="50" height="50" relative="1" as="geometry">
            <mxPoint x="740" y="570" as="sourcePoint" />
            <mxPoint x="790" y="520" as="targetPoint" />
          </mxGeometry>
        </mxCell>
        <mxCell id="9gD_KTxOKnr7OHT7p1pg-280" value="image_after" style="ellipse;whiteSpace=wrap;html=1;" vertex="1" parent="1">
          <mxGeometry x="190" y="570" width="90" height="30" as="geometry" />
        </mxCell>
        <mxCell id="9gD_KTxOKnr7OHT7p1pg-281" value="" style="endArrow=none;html=1;exitX=0.5;exitY=0;exitDx=0;exitDy=0;entryX=0.614;entryY=1.06;entryDx=0;entryDy=0;entryPerimeter=0;" edge="1" parent="1" source="9gD_KTxOKnr7OHT7p1pg-280" target="9gD_KTxOKnr7OHT7p1pg-24">
          <mxGeometry width="50" height="50" relative="1" as="geometry">
            <mxPoint x="160" y="580" as="sourcePoint" />
            <mxPoint x="210" y="530" as="targetPoint" />
          </mxGeometry>
        </mxCell>
        <mxCell id="9gD_KTxOKnr7OHT7p1pg-282" value="" style="endArrow=none;html=1;exitX=0;exitY=0.5;exitDx=0;exitDy=0;" edge="1" parent="1" source="9gD_KTxOKnr7OHT7p1pg-96">
          <mxGeometry width="50" height="50" relative="1" as="geometry">
            <mxPoint x="40" y="670" as="sourcePoint" />
            <mxPoint x="70" y="670" as="targetPoint" />
          </mxGeometry>
        </mxCell>
        <mxCell id="9gD_KTxOKnr7OHT7p1pg-283" value="pm_type" style="ellipse;whiteSpace=wrap;html=1;" vertex="1" parent="1">
          <mxGeometry x="10" y="653.5" width="90" height="30" as="geometry" />
        </mxCell>
        <mxCell id="9gD_KTxOKnr7OHT7p1pg-285" value="evaluate_case" style="rounded=0;whiteSpace=wrap;html=1;" vertex="1" parent="1">
          <mxGeometry x="185" y="120" width="100" height="30" as="geometry" />
        </mxCell>
        <mxCell id="9gD_KTxOKnr7OHT7p1pg-286" value="" style="endArrow=none;html=1;exitX=0.5;exitY=0;exitDx=0;exitDy=0;entryX=0.5;entryY=1;entryDx=0;entryDy=0;" edge="1" parent="1" source="9gD_KTxOKnr7OHT7p1pg-285" target="9gD_KTxOKnr7OHT7p1pg-287">
          <mxGeometry width="50" height="50" relative="1" as="geometry">
            <mxPoint x="300" y="140" as="sourcePoint" />
            <mxPoint x="340" y="110" as="targetPoint" />
          </mxGeometry>
        </mxCell>
        <mxCell id="9gD_KTxOKnr7OHT7p1pg-287" value="&lt;u&gt;id&lt;/u&gt;" style="ellipse;whiteSpace=wrap;html=1;" vertex="1" parent="1">
          <mxGeometry x="180" y="70" width="90" height="30" as="geometry" />
        </mxCell>
        <mxCell id="9gD_KTxOKnr7OHT7p1pg-288" value="&lt;span style=&quot;font-weight: normal&quot;&gt;score&lt;/span&gt;" style="ellipse;whiteSpace=wrap;html=1;fontStyle=1" vertex="1" parent="1">
          <mxGeometry x="280" y="70" width="90" height="30" as="geometry" />
        </mxCell>
        <mxCell id="9gD_KTxOKnr7OHT7p1pg-290" value="" style="endArrow=none;html=1;exitX=0.75;exitY=0;exitDx=0;exitDy=0;" edge="1" parent="1" source="9gD_KTxOKnr7OHT7p1pg-285">
          <mxGeometry width="50" height="50" relative="1" as="geometry">
            <mxPoint x="285" y="135" as="sourcePoint" />
            <mxPoint x="280" y="85" as="targetPoint" />
          </mxGeometry>
        </mxCell>
        <mxCell id="9gD_KTxOKnr7OHT7p1pg-291" value="&lt;span style=&quot;font-weight: normal&quot;&gt;detail_other&lt;/span&gt;" style="ellipse;whiteSpace=wrap;html=1;fontStyle=1" vertex="1" parent="1">
          <mxGeometry x="375" y="70" width="90" height="30" as="geometry" />
        </mxCell>
        <mxCell id="9gD_KTxOKnr7OHT7p1pg-292" value="&lt;span style=&quot;font-weight: normal&quot;&gt;date&lt;/span&gt;" style="ellipse;whiteSpace=wrap;html=1;fontStyle=1" vertex="1" parent="1">
          <mxGeometry x="80" y="70" width="90" height="30" as="geometry" />
        </mxCell>
        <mxCell id="9gD_KTxOKnr7OHT7p1pg-293" value="" style="endArrow=none;html=1;exitX=1;exitY=0;exitDx=0;exitDy=0;entryX=0.286;entryY=1.022;entryDx=0;entryDy=0;entryPerimeter=0;" edge="1" parent="1" source="9gD_KTxOKnr7OHT7p1pg-285" target="9gD_KTxOKnr7OHT7p1pg-291">
          <mxGeometry width="50" height="50" relative="1" as="geometry">
            <mxPoint x="330" y="170" as="sourcePoint" />
            <mxPoint x="380" y="120" as="targetPoint" />
          </mxGeometry>
        </mxCell>
        <mxCell id="9gD_KTxOKnr7OHT7p1pg-294" value="" style="endArrow=none;html=1;exitX=0;exitY=0;exitDx=0;exitDy=0;entryX=0.754;entryY=0.904;entryDx=0;entryDy=0;entryPerimeter=0;" edge="1" parent="1" source="9gD_KTxOKnr7OHT7p1pg-285" target="9gD_KTxOKnr7OHT7p1pg-292">
          <mxGeometry width="50" height="50" relative="1" as="geometry">
            <mxPoint x="110" y="190" as="sourcePoint" />
            <mxPoint x="160" y="140" as="targetPoint" />
          </mxGeometry>
        </mxCell>
        <mxCell id="9gD_KTxOKnr7OHT7p1pg-295" value="do" style="rhombus;whiteSpace=wrap;html=1;" vertex="1" parent="1">
          <mxGeometry x="180" y="200" width="55" height="30" as="geometry" />
        </mxCell>
        <mxCell id="9gD_KTxOKnr7OHT7p1pg-296" value="1" style="endArrow=none;html=1;entryX=0.5;entryY=1;entryDx=0;entryDy=0;" edge="1" parent="1" target="9gD_KTxOKnr7OHT7p1pg-295">
          <mxGeometry width="50" height="50" relative="1" as="geometry">
            <mxPoint x="208" y="278" as="sourcePoint" />
            <mxPoint x="230" y="230" as="targetPoint" />
          </mxGeometry>
        </mxCell>
        <mxCell id="9gD_KTxOKnr7OHT7p1pg-297" value="1" style="endArrow=none;html=1;exitX=0.5;exitY=0;exitDx=0;exitDy=0;entryX=0.25;entryY=1;entryDx=0;entryDy=0;" edge="1" parent="1" source="9gD_KTxOKnr7OHT7p1pg-295" target="9gD_KTxOKnr7OHT7p1pg-285">
          <mxGeometry width="50" height="50" relative="1" as="geometry">
            <mxPoint x="190" y="210" as="sourcePoint" />
            <mxPoint x="240" y="160" as="targetPoint" />
          </mxGeometry>
        </mxCell>
        <mxCell id="9gD_KTxOKnr7OHT7p1pg-298" value="&lt;span style=&quot;font-weight: normal&quot;&gt;user_id&lt;/span&gt;" style="ellipse;whiteSpace=wrap;html=1;fontStyle=1" vertex="1" parent="1">
          <mxGeometry x="45" y="120" width="90" height="30" as="geometry" />
        </mxCell>
        <mxCell id="9gD_KTxOKnr7OHT7p1pg-299" value="" style="endArrow=none;html=1;entryX=0;entryY=0.5;entryDx=0;entryDy=0;exitX=1;exitY=0.5;exitDx=0;exitDy=0;" edge="1" parent="1" source="9gD_KTxOKnr7OHT7p1pg-298" target="9gD_KTxOKnr7OHT7p1pg-285">
          <mxGeometry width="50" height="50" relative="1" as="geometry">
            <mxPoint x="150" y="190" as="sourcePoint" />
            <mxPoint x="200" y="140" as="targetPoint" />
          </mxGeometry>
        </mxCell>
        <mxCell id="9gD_KTxOKnr7OHT7p1pg-301" value="was" style="rhombus;whiteSpace=wrap;html=1;rotation=65;" vertex="1" parent="1">
          <mxGeometry x="260" y="210" width="70" height="30" as="geometry" />
        </mxCell>
        <mxCell id="9gD_KTxOKnr7OHT7p1pg-302" value="1" style="endArrow=none;html=1;entryX=0.75;entryY=1;entryDx=0;entryDy=0;exitX=0;exitY=0.5;exitDx=0;exitDy=0;" edge="1" parent="1" source="9gD_KTxOKnr7OHT7p1pg-301" target="9gD_KTxOKnr7OHT7p1pg-285">
          <mxGeometry width="50" height="50" relative="1" as="geometry">
            <mxPoint x="280" y="200" as="sourcePoint" />
            <mxPoint x="330" y="150" as="targetPoint" />
          </mxGeometry>
        </mxCell>
        <mxCell id="9gD_KTxOKnr7OHT7p1pg-303" value="" style="endArrow=none;html=1;entryX=1;entryY=0.5;entryDx=0;entryDy=0;exitX=0.696;exitY=-0.024;exitDx=0;exitDy=0;exitPerimeter=0;" edge="1" parent="1" source="9gD_KTxOKnr7OHT7p1pg-24" target="9gD_KTxOKnr7OHT7p1pg-301">
          <mxGeometry width="50" height="50" relative="1" as="geometry">
            <mxPoint x="360" y="270" as="sourcePoint" />
            <mxPoint x="410" y="220" as="targetPoint" />
          </mxGeometry>
        </mxCell>
        <mxCell id="9gD_KTxOKnr7OHT7p1pg-304" value="1" style="edgeLabel;html=1;align=center;verticalAlign=middle;resizable=0;points=[];" vertex="1" connectable="0" parent="9gD_KTxOKnr7OHT7p1pg-303">
          <mxGeometry x="0.3718" y="-2" relative="1" as="geometry">
            <mxPoint as="offset" />
          </mxGeometry>
        </mxCell>
      </root>
    </mxGraphModel>
  </diagram>
</mxfile>
